<?xml version="1.0" standalone="no"?><!DOCTYPE svg PUBLIC "-//W3C//DTD SVG 1.1//EN" "http://www.w3.org/Graphics/SVG/1.1/DTD/svg11.dtd"><svg class="icon" width="200px" height="200.00px" viewBox="0 0 1024 1024" version="1.1" xmlns="http://www.w3.org/2000/svg"><path d="M165.6 203.3V80.8c0-11.1-9-20.1-20.1-20.1-11.1 0-20.1 9-20.1 20.1v122.3c-32 9.1-54.2 38.3-54.2 71.6s22.1 62.5 54.2 71.6v595.4c0 7.2 3.8 13.8 10 17.4 6.2 3.6 13.9 3.6 20.1 0 6.2-3.6 10-10.2 10-17.4V346.5c32-9.1 54.2-38.3 54.2-71.6 0.1-33.3-22-62.5-54.1-71.6z m0 100.3c-5.8 4.3-12.8 6.6-20.1 6.6-7.2-0.1-14.3-2.5-20.1-6.8-8.8-6.4-14-16.7-14-27.6 0-10.9 5.2-21.2 14-27.6 5.7-4.5 12.8-6.9 20.1-7 7.3 0 14.3 2.4 20.1 6.8 8.9 6.4 14.2 16.8 14.2 27.8s-5.2 21.3-14.2 27.8z m182.5 253.2v-476c0-11.1-9-20.1-20.1-20.1-11.1 0-20.1 9-20.1 20.1v476.1c-32 9.1-54.2 38.3-54.2 71.6s22.1 62.5 54.2 71.6v241.6c0 11.1 9 20.1 20.1 20.1 11.1 0 20.1-9 20.1-20.1V701c32-9.1 54.2-38.3 54.2-71.6s-22.1-62.5-54.2-71.6v-1z m0 100.3c-12 8.7-28.1 8.7-40.1 0-8.8-6.5-14-16.7-14-27.7 0-10.9 5.2-21.2 14-27.7 12-8.7 28.2-8.7 40.1 0 8.8 6.5 14 16.7 14 27.7 0.1 11-5.1 21.2-14 27.7z m182.3-292.2V80.8c0-11.1-9-20.1-20.1-20.1-11.1 0-20.1 9-20.1 20.1V365c-32 9.1-54.2 38.3-54.2 71.6s22.1 62.5 54.2 71.6v433.6c0 7.2 3.8 13.8 10 17.4 6.2 3.6 13.9 3.6 20.1 0 6.2-3.6 10-10.2 10-17.4V508.1c32-9.1 54.2-38.3 54.2-71.6s-22-62.5-54.1-71.6z m0 100.3c-5.8 4.3-12.8 6.7-20.1 6.8-7.2 0-14.3-2.3-20.1-6.6-8.9-6.5-14.2-16.8-14.2-27.9 0-11 5.3-21.4 14.2-27.9 5.8-4.3 12.8-6.6 20.1-6.6 7.2 0.1 14.3 2.5 20.1 6.8 8.8 6.5 14 16.7 14 27.7 0.1 11-5.2 21.2-14 27.7zM712.5 751V80.8c0-11.1-9-20.1-20.1-20.1-11.1 0-20.1 9-20.1 20.1V751c-32.2 8.9-54.5 38.3-54.5 71.7 0 33.4 22.3 62.8 54.5 71.7v47.3c0 11.1 9 20.1 20.1 20.1 11.1 0 20.1-9 20.1-20.1v-47.5c32-9.1 54.2-38.3 54.2-71.6S744.5 760 712.5 751z m0 99.2c-5.8 4.3-12.8 6.7-20.1 6.8-7.2 0-14.3-2.3-20.1-6.6-8.9-6.5-14.2-16.9-14.2-27.9s5.3-21.4 14.2-27.9c5.8-4.3 12.8-6.6 20.1-6.6 7.2 0.1 14.3 2.5 20.1 6.8 8.8 6.5 14 16.7 14 27.7s-5.2 21.3-14 27.7z m162-789.5h-4.8 4.8c1.7-0.2 3.3-0.2 5 0h-5z m5 0h-9.8c-36.3 2.1-65.8 30.2-69.6 66.4-3.8 36.2 19.1 69.9 54.2 79.5v735c0 11.1 9 20.1 20.1 20.1 11.1 0 20.1-9 20.1-20.1V207.3c36-8.8 60-42.9 56.3-79.7-3.9-36.9-34.2-65.4-71.3-66.9zM895 162.8c-5.8 4.3-12.8 6.7-20.1 6.8-7.3 0-14.3-2.4-20.1-6.8-8.8-6.5-14-16.7-14-27.7 0-10.9 5.2-21.2 14-27.7 5.7-4.4 12.8-6.8 20.1-6.8 7.2 0.1 14.3 2.5 20.1 6.8 8.8 6.5 14 16.7 14 27.7s-5.2 21.2-14 27.7z m0 0" /></svg>