<?xml version="1.0" standalone="no"?><!DOCTYPE svg PUBLIC "-//W3C//DTD SVG 1.1//EN" "http://www.w3.org/Graphics/SVG/1.1/DTD/svg11.dtd"><svg class="icon" width="200px" height="200.00px" viewBox="0 0 1024 1024" version="1.1" xmlns="http://www.w3.org/2000/svg"><path d="M192 917.696a32 32 0 0 1-31.488-26.24l-0.512-5.76V439.68l-43.52 33.6a32 32 0 0 1-40.96-1.536l-3.84-4.288a32 32 0 0 1 1.536-40.96l4.224-3.904 415.04-320a32 32 0 0 1 33.792-3.264l5.184 3.2 416.896 320a32 32 0 0 1-34.112 53.888l-4.864-3.072-77.44-59.456 0.064 471.68a32 32 0 0 1-26.24 31.552l-5.76 0.512H192z m580.224-549.568L512 168.32 224 390.4v463.232h159.36v-256a32 32 0 0 1 26.24-31.424l5.76-0.512h191.936a32 32 0 0 1 31.488 26.24l0.512 5.76v255.936h128.64L768 384c0-5.76 1.536-11.2 4.224-15.872zM575.232 629.632H447.296v224h127.936v-224z"  /></svg>