<?xml version="1.0" standalone="no"?><!DOCTYPE svg PUBLIC "-//W3C//DTD SVG 1.1//EN" "http://www.w3.org/Graphics/SVG/1.1/DTD/svg11.dtd"><svg t="1760090149676" class="icon" viewBox="0 0 1024 1024" version="1.1" xmlns="http://www.w3.org/2000/svg" p-id="121212" xmlns:xlink="http://www.w3.org/1999/xlink" width="200" height="200"><path d="M480.851071 64.189951c-158.215418 0-289.471834 126.081557-289.471834 281.580097 0 155.494447 129.831974 292.949029 288.047392 292.949029 158.212348 0 287.859104-137.454582 287.859104-292.949029C767.285732 190.272531 639.063419 64.189951 480.851071 64.189951zM479.341694 575.381539c-123.624599 0-223.850278-100.236935-223.850278-223.843114 0-123.685997 100.226702-223.858464 223.850278-223.858464 123.682927 0 223.910653 100.172467 223.910653 223.858464C703.251324 475.144604 603.024621 575.381539 479.341694 575.381539z" p-id="121213" fill="#8a8a8a"></path><path d="M127.855458 959.194018c0-182.375677 165.962869-320.906777 351.476003-320.906777 99.926874 0 199.12413 34.883485 274.167267 120.841206l47.566342-40.046065c-78.265528-98.441033-187.277314-143.752008-321.734632-143.752008-225.986941 0-415.750889 161.632237-415.750889 383.799176L127.855458 959.194018z" p-id="121214" fill="#8a8a8a"></path><path d="M941.431981 769.217223c0 0 30.773887-23.9996 8.927323-49.299823-22.070668-25.560142-50.27708 1.131777-50.27708 1.131777L706.016297 888.138706l-59.58712-68.885903c-14.776542-17.113773-29.342282-23.304775-48.03297-7.164167-16.98279 14.663978-14.32424 31.812543 0.25378 48.695049 0 0 73.317843 85.261872 75.626421 87.530542 8.235568 8.069793 19.321044 11.706623 30.124088 11.466146 10.785647 0.210801 21.638833-3.659343 29.850865-11.754718C735.94084 946.357666 941.431981 769.217223 941.431981 769.217223z" p-id="121215"></path></svg>