<?xml version="1.0" standalone="no"?><!DOCTYPE svg PUBLIC "-//W3C//DTD SVG 1.1//EN" "http://www.w3.org/Graphics/SVG/1.1/DTD/svg11.dtd"><svg t="1760090736769" class="icon" viewBox="0 0 1024 1024" version="1.1" xmlns="http://www.w3.org/2000/svg" p-id="134910" xmlns:xlink="http://www.w3.org/1999/xlink" width="200" height="200"><path d="M847 752H202V247c0-13.8-11.2-25-25-25s-25 11.2-25 25v530c0 13.8 11.2 25 25 25h670c13.8 0 25-11.2 25-25s-11.2-25-25-25z" p-id="134911" fill="#8a8a8a"></path><path d="M255.5 682.1c4.7 3.9 10.4 5.8 16 5.8 7.1 0 14.2-3 19.2-9l127.3-152 103.9 80.4c10.5 8.1 25.5 6.6 34.2-3.3L798 326.4c9.1-10.4 8-26.2-2.4-35.3-10.4-9.1-26.2-8-35.3 2.4L533.9 553.4l-104.3-80.7c-10.6-8.2-25.8-6.6-34.5 3.7L252.4 646.9c-8.9 10.6-7.5 26.3 3.1 35.2z" p-id="134912"></path></svg>