<?xml version="1.0" standalone="no"?><!DOCTYPE svg PUBLIC "-//W3C//DTD SVG 1.1//EN" "http://www.w3.org/Graphics/SVG/1.1/DTD/svg11.dtd"><svg class="icon" width="200px" height="200.00px" viewBox="0 0 1024 1024" version="1.1" xmlns="http://www.w3.org/2000/svg"><path d="M689.83 703.896c-10.935 0.36-21.505 1.107-31.714 2.243-64.292 7.158-114.307 29.753-151.771 68.116-3.893 3.986-5.989 8.781-5.989 13.702v20.849c0 6.453 7.058 11.684 15.764 11.684h378.318c8.705 0 15.763-5.231 15.763-11.684v-20.848c0-4.921-2.096-9.717-5.989-13.703-43.544-44.59-104.045-67.877-184.21-70.382-4.985 0.607-10.05 0.919-15.182 0.919-5.066 0-10.066-0.304-14.99-0.896z m-84.796-45.9c-28.931-32.206-46.841-78.176-46.841-128.7 0-95.957 64.608-175.494 146.627-175.494 82.02 0 146.628 79.537 146.628 175.495 0 50.416-17.835 96.3-46.66 128.496 61.456 16.931 111.661 50.968 150.616 102.11 8.675 11.39 13.346 25.09 13.346 39.15v29.783c0 27.656-23.592 50.076-52.694 50.076H494.5c-29.102 0-52.694-22.42-52.694-50.076v-29.783c0-14.06 4.67-27.761 13.346-39.15 38.8-50.938 88.76-84.907 149.881-101.906z m65.281-11.379c11.35-0.928 23.004-1.393 34.964-1.393 11.684 0 23.076 0.443 34.178 1.33 36.89-17.93 63.115-63.666 63.115-117.257 0-69.23-43.765-125.354-97.752-125.354-53.986 0-97.751 56.123-97.751 125.354 0 53.654 26.287 99.436 63.246 117.32zM31.25 60.547h59.567v877.932H31.25V60.547z m116.386 0h117.302v760.63H147.636V60.547z m176.87 0h59.567v760.63h-59.568V60.547z m175.952 0H617.76v293.255H500.458V60.547z m350.99 0h59.567v293.255h-59.567V60.547z m-116.386 0h59.568v233.688h-59.568V60.547z"  /></svg>