<?xml version="1.0" standalone="no"?><!DOCTYPE svg PUBLIC "-//W3C//DTD SVG 1.1//EN" "http://www.w3.org/Graphics/SVG/1.1/DTD/svg11.dtd"><svg class="icon" width="200px" height="200.00px" viewBox="0 0 1024 1024" version="1.1" xmlns="http://www.w3.org/2000/svg"><path d="M1014.601806 969.354795l-118.717403-118.717403a208.219445 208.219445 0 1 0-45.247011 45.27901l118.717403 118.685404a31.9993 31.9993 0 0 0 45.247011-45.247011z m-184.635962-139.388951a143.932851 143.932851 0 1 1 0-203.675544 144.156847 144.156847 0 0 1 0 203.675544zM156.284581 315.89709H564.787645v63.9986H156.284581zM150.012718 752.687535h186.715916v63.9986H150.012718zM150.012718 534.292312h277.433932v63.9986h-277.433932z"  /><path d="M63.9986 127.9972h189.051865v37.535179A26.463421 26.463421 0 0 0 279.513886 191.9958H706.544544a26.463421 26.463421 0 0 0 26.463421-26.463421V127.9972H895.9804v286.009744h63.9986V102.813751A38.911149 38.911149 0 0 0 921.13185 63.9986h-188.091885V26.463421A26.463421 26.463421 0 0 0 706.576544 0H279.513886a26.463421 26.463421 0 0 0-26.463421 26.463421V63.9986H38.84715A38.911149 38.911149 0 0 0 0 102.84575v882.2847A38.911149 38.911149 0 0 0 38.84715 1023.9776h446.422235v-63.9986H63.9986z m253.050465-63.9986h351.9923v63.9986h-351.9923z"  /></svg>