<?xml version="1.0" standalone="no"?><!DOCTYPE svg PUBLIC "-//W3C//DTD SVG 1.1//EN" "http://www.w3.org/Graphics/SVG/1.1/DTD/svg11.dtd"><svg class="icon" width="200px" height="200.00px" viewBox="0 0 1024 1024" version="1.1" xmlns="http://www.w3.org/2000/svg"><path d="M263.14 653.49a25 25 0 0 0 0 50h106.3a25 25 0 1 0 0-50zM484.44 540.3a25 25 0 0 0-25-25h-196.3a25 25 0 0 0 0 50h196.3a25 25 0 0 0 25-25zM902.91 775.36l-81.3-81.3a155 155 0 0 0-199.88-198.73 31.14 31.14 0 0 0-11 51.18l0.17 0.16 60.45 60.46a15.26 15.26 0 0 1 0 21.29l-7 7a15.27 15.27 0 0 1-21.3 0l-60.48-60.49a31.25 31.25 0 0 0-51.44 10.89A155 155 0 0 0 729.68 786l80.75 80.75a66.1 66.1 0 0 0 46.8 19.38 64.27 64.27 0 0 0 42.46-15.83 65.11 65.11 0 0 0 3.22-94.93z m-31 46.48a15 15 0 0 1-5.11 10.81c-5.9 5.16-15.12 4.6-21-1.27L761.42 747a41.93 41.93 0 0 0-29.75-12.35 42.42 42.42 0 0 0-16 3.13A105 105 0 0 1 571.31 634.4l36.37 36.37a65.14 65.14 0 0 0 92 0l7-7a65.13 65.13 0 0 0 0-92l-36.1-36.1a105 105 0 0 1 102.84 144.39 42.08 42.08 0 0 0 9.22 45.75l84.91 84.91a14.94 14.94 0 0 1 4.34 11.12zM559.16 808.69H178.69V405.4l668-1.72v48.17a25 25 0 0 0 50 0v-63.59a37.86 37.86 0 0 0-0.7-7.19 25 25 0 0 0-3.34-15.16L763.3 146.73a25 25 0 0 0-21.53-12.29H284.42a25 25 0 0 0-21.57 12.37l-129.35 221a25.07 25.07 0 0 0-3.26 9.82 37.14 37.14 0 0 0-1.55 10.61v433.45a37 37 0 0 0 37 37h393.47c13.81 0 25-10.19 25-24v-2c0-13.81-11.16-24-25-24zM826 351.26H534.67V184.44h192.82zM298.76 184.44h185.91v166.82H201.13z" /></svg>