<?xml version="1.0" standalone="no"?><!DOCTYPE svg PUBLIC "-//W3C//DTD SVG 1.1//EN" "http://www.w3.org/Graphics/SVG/1.1/DTD/svg11.dtd"><svg class="icon" width="200px" height="200.00px" viewBox="0 0 1024 1024" version="1.1" xmlns="http://www.w3.org/2000/svg"><path d="M993.906334 506.88455a29.439595 29.439595 0 0 1-30.079587-29.439595V145.929513c0-10.239859-14.079806-21.11971-33.279542-21.119709H767.98944a30.079586 30.079586 0 1 1 0-60.159173h161.917774A88.318786 88.318786 0 0 1 1023.98592 145.289522v331.515442a29.439595 29.439595 0 0 1-29.439595 30.079586zM481.273382 996.477818H93.438715A88.318786 88.318786 0 0 1 0 915.838927v-767.98944a88.318786 88.318786 0 0 1 93.438715-83.198856h127.99824a30.079586 30.079586 0 0 1 0 60.159173h-127.99824c-19.199736 0-33.279542 10.87985-33.279542 20.479718v767.98944c0 9.599868 14.079806 20.479718 33.279542 20.479719h387.834667a30.079586 30.079586 0 0 1 0 60.159173z" fill="#040000" /><path d="M717.430135 221.448475H265.596348A72.319006 72.319006 0 0 1 191.99736 149.129469v-76.798944A72.319006 72.319006 0 0 1 265.596348 0.01152h451.833787a72.958997 72.958997 0 0 1 72.319006 72.319005v76.798944a72.958997 72.958997 0 0 1-72.319006 72.319006zM265.596348 60.170693a12.159833 12.159833 0 0 0-9.599868 12.159832v76.798944a12.159833 12.159833 0 0 0 11.519842 12.159833h451.833787a12.799824 12.799824 0 0 0 12.159833-12.159833v-76.798944a12.799824 12.799824 0 0 0-12.159833-12.159832zM233.596788 465.285122l-95.358689-121.598328a15.359789 15.359789 0 1 1 23.679675-18.559744l74.87897 95.99868 158.077826-149.757941a15.359789 15.359789 0 0 1 21.11971 0 15.359789 15.359789 0 0 1 0 21.7597zM232.316806 798.080546l-95.358689-121.598328a15.359789 15.359789 0 0 1 0-21.119709 14.719798 14.719798 0 0 1 21.119709 0l74.878971 95.358689 160.637791-147.197976a15.359789 15.359789 0 0 1 21.11971 0 14.719798 14.719798 0 0 1 0 21.119709zM852.468279 296.967437H585.591948a14.719798 14.719798 0 0 1-14.719797-14.719798 14.719798 14.719798 0 0 1 14.719797-15.359789h266.876331a15.359789 15.359789 0 0 1 15.359788 15.359789 14.719798 14.719798 0 0 1-15.359788 14.719798zM737.269863 1023.99744A284.156093 284.156093 0 1 1 1023.98592 739.841347 285.436075 285.436075 0 0 1 737.269863 1023.99744z m0-507.513022a223.99692 223.99692 0 1 0 226.556884 223.356929 224.636911 224.636911 0 0 0-226.556884-223.356929z"  /><path d="M858.228199 768.00096H703.99032V629.762861a15.359789 15.359789 0 0 1 15.359789-15.359789 14.719798 14.719798 0 0 1 14.719798 15.359789v110.078486h124.158292a14.719798 14.719798 0 0 1 15.359789 14.719798 15.359789 15.359789 0 0 1-15.359789 13.439815z"  /></svg>