<?xml version="1.0" standalone="no"?><!DOCTYPE svg PUBLIC "-//W3C//DTD SVG 1.1//EN" "http://www.w3.org/Graphics/SVG/1.1/DTD/svg11.dtd"><svg t="1760090294991" class="icon" viewBox="0 0 1024 1024" version="1.1" xmlns="http://www.w3.org/2000/svg" p-id="124037" xmlns:xlink="http://www.w3.org/1999/xlink" width="200" height="200"><path d="M501.419 945.835H73.387v-22.87c0-235.861 190.464-429.738 424.618-432.128h7.168c133.12-1.706 240.982-110.592 240.982-244.053 0-134.485-109.568-244.053-244.054-244.053-134.485 0-244.053 109.568-244.053 244.053 0 82.261 41.643 159.061 110.592 204.117-80.896 23.211-154.283 67.243-213.333 127.318a489.335 489.335 0 0 0-140.63 344.746v52.224c0 16.043 12.971 29.355 29.355 29.355h457.045c16.043 0 29.355-12.97 29.355-29.355a28.672 28.672 0 0 0-29.013-29.354zM316.757 246.443c0-102.4 83.286-185.344 185.686-185.344s185.344 83.285 185.344 185.685S604.5 432.128 502.1 432.128c-102.058 0-185.344-83.285-185.344-185.685z m0 0" fill="#666666" p-id="124038"></path><path d="M765.61 480.597c-39.253 1.024-70.655 24.235-72.703 53.59v0.682l0.682 31.062c-7.509 7.85-29.696 21.845-40.277 26.282l-31.744-17.408c-13.995-7.509-31.744-7.168-48.47 1.707-14.335 7.51-27.306 20.821-36.18 37.205-18.774 34.475-14.337 73.046 10.24 89.771l30.037 16.384c2.048 10.923 2.048 36.181 0 46.763l-30.379 18.773c-26.624 16.384-30.379 57.003-8.875 92.501 21.846 35.499 59.734 50.518 86.358 34.134l28.33-17.408c10.24 3.754 30.038 15.701 37.547 22.186l1.024 39.595c3.072 35.499 35.157 55.296 83.627 52.224 36.522-2.048 65.194-27.648 64.853-57.344l-1.024-34.475c7.51-6.485 25.941-17.749 35.499-21.845l35.84 19.456c15.018 10.24 28.672 9.557 37.888 6.827 19.797-5.462 37.546-24.235 52.565-56.662 14.677-30.72 6.144-66.901-18.773-80.554l-28.331-15.36c-2.73-9.558-4.096-31.744-3.413-42.667l35.498-21.845c15.019-9.216 22.87-26.283 22.87-45.739 0-15.019-4.779-31.403-13.995-46.763-21.163-34.474-58.71-49.834-85.675-34.474l-24.917 15.36c-9.899-2.048-32.085-12.63-41.984-19.115l-1.024-39.253c-0.341-16.043-9.899-31.062-25.6-40.96-13.312-8.534-31.061-12.971-49.493-12.63z m29.355 53.931c2.39 1.707 8.192 5.803 8.534 10.923l1.365 49.152 2.39 4.096c8.191 13.312 59.391 39.253 79.53 35.157l3.072-0.683 30.037-18.432c6.827-3.754 23.211 2.39 34.816 21.163 11.606 18.773 9.558 36.864 3.072 40.96l-44.373 27.307-2.048 4.437c-2.39 5.12-3.755 16.043-3.755 28.33 0 20.14 3.414 44.033 10.923 53.59l2.048 2.73 35.157 19.115c6.144 3.414 10.582 17.067 3.072 32.768-10.581 22.87-21.162 32.768-27.648 34.475-1.024 0.341-3.754 1.024-8.533-2.39l-46.421-25.258h-4.438c-15.36 0.341-60.416 26.283-68.266 42.325l-2.048 3.755 1.024 43.69v0.342c0 7.51-10.923 18.09-30.038 19.115-15.36 1.024-40.96 0-42.666-17.408l-1.366-46.422-1.706-3.413c-7.851-15.36-54.614-43.008-71.68-42.325h-4.438l-36.864 22.528c-6.485 4.096-23.552-2.048-35.157-21.163-11.605-18.773-9.557-36.864-3.072-40.96l36.864-22.87 2.048-2.047c10.581-15.019 10.581-72.363 0-87.723l-2.39-3.413-35.498-19.456c-5.803-4.779-8.192-21.846 1.707-40.278 5.12-9.557 12.629-17.066 20.138-21.162 2.731-1.366 9.216-4.096 13.654-1.707l39.936 21.504h4.096c17.066 0.341 67.584-30.72 74.41-49.152l1.024-3.072-1.024-36.181c1.024-7.51 14.678-18.091 35.84-18.774 10.923-0.341 21.163 2.39 28.672 6.827z m0 0" fill="#666666" p-id="124039"></path><path d="M672.085 744.79c0 51.882 42.326 94.549 94.55 94.549 51.882 0 94.549-42.326 94.549-94.55 0-51.882-42.325-94.549-94.55-94.549a94.993 94.993 0 0 0-94.549 94.55z m141.654 0c0 25.94-21.163 47.103-47.104 47.103-25.942 0-47.104-21.162-47.104-47.104 0-25.941 21.162-47.104 47.104-47.104 25.941 0 47.104 21.163 47.104 47.104z m0 0" p-id="124040"></path></svg>