<?xml version="1.0" standalone="no"?><!DOCTYPE svg PUBLIC "-//W3C//DTD SVG 1.1//EN" "http://www.w3.org/Graphics/SVG/1.1/DTD/svg11.dtd"><svg class="icon" width="200px" height="194.68px" viewBox="0 0 1052 1024" version="1.1" xmlns="http://www.w3.org/2000/svg"><path d="M1043.134659 301.698577c16.781171-41.384074 10.808212-87.176762-17.492237-132.258382a71.106657 71.106657 0 0 0-56.885326-32.566849A52.192286 52.192286 0 0 0 924.386542 158.48977c-50.770153 70.111164-90.163241 71.106657-104.811213 60.298445l-3.697546-2.559839c-22.043064-12.514772-25.171757-25.029543-25.74061-33.277916-1.990986-36.833248 47.783674-88.741108 74.804204-108.366545a36.264395 36.264395 0 0 0-13.936905-64.707058C767.951896-10.033007 701.680492 0.064138 655.176738 41.021573c-64.280418 55.889832-68.546817 151.45718-67.693537 187.721574l-113.770652 108.508759-96.847267-82.768149a52.3345 52.3345 0 0 1-17.065597-28.442663l-14.221332-63.853778a109.788679 109.788679 0 0 0-72.52879-79.355029L156.434646 43.296986a113.770651 113.770651 0 0 0-116.046065 25.598396A106.517772 106.517772 0 0 0 12.088132 182.09718l37.544315 107.939906a110.357532 110.357532 0 0 0 80.777162 71.106657l42.663994 9.954932a55.605406 55.605406 0 0 1 28.442663 15.927891l103.246866 109.788678-258.401592 246.029034a149.039553 149.039553 0 0 0-2.275413 213.319971 150.6039 150.6039 0 0 0 208.484719 3.697546l261.530285-241.762634 241.762634 256.837246a156.434646 156.434646 0 0 0 221.85277 5.119679 146.195287 146.195287 0 0 0-6.684026-217.870797L709.075584 538.625959l102.251373-94.429641c128.134196-31.713569 206.067092-79.781669 231.807702-142.497741z m-799.807679 46.503754a112.206305 112.206305 0 0 0-56.885325-32.424635l-42.663994-9.954932a53.756633 53.756633 0 0 1-39.677515-34.415622l-38.255382-107.939906a50.059087 50.059087 0 0 1 13.083625-53.045566 56.885326 56.885326 0 0 1 39.677515-15.785678 56.885326 56.885326 0 0 1 18.629944 3.128693l116.472704 39.535301a53.329993 53.329993 0 0 1 35.411116 38.255382l14.221331 63.853778a109.788679 109.788679 0 0 0 35.411115 58.165245l92.580868 79.070603L398.19728 409.211843l-51.05458 48.49474zM934.341474 805.986989a89.452175 89.452175 0 0 1 4.266399 133.822729 100.4026 100.4026 0 0 1-140.933394-3.270906l-241.762634-255.983966 111.068598-103.104652zM783.595361 392.288459l-118.179264 109.219825-190.281414 175.775656L213.319971 918.619934a93.718574 93.718574 0 0 1-129.840756-2.275413 92.296441 92.296441 0 0 1 1.848773-132.258382l258.970446-245.744607 89.309961-85.327988 213.319971-202.08512-1.422133-14.221331c0-0.995493-8.390586-104.811213 47.64146-153.732593A121.45017 121.45017 0 0 1 774.920349 56.949464c7.110666 0 14.221331 0 22.185277 1.137706-29.438156 29.438156-67.124684 77.22183-64.422632 127.991983a95.851774 95.851774 0 0 0 52.903353 78.928389 92.438654 92.438654 0 0 0 64.991485 14.221332c40.673008-5.404106 80.208309-34.131195 117.752624-85.327989a15.501251 15.501251 0 0 1 9.101652 5.830746c18.487731 29.438156 22.75413 56.885326 12.941412 80.492736-12.941412 31.713569-58.023032 76.510763-199.09864 110.499745zM670.25135 704.588896l193.12568 188.148215a28.442663 28.442663 0 0 0 39.677515-40.815221L709.928864 663.915889a28.442663 28.442663 0 1 0-39.677514 40.673007z" /></svg>