<?xml version="1.0" standalone="no"?><!DOCTYPE svg PUBLIC "-//W3C//DTD SVG 1.1//EN" "http://www.w3.org/Graphics/SVG/1.1/DTD/svg11.dtd"><svg class="icon" width="200px" height="200.00px" viewBox="0 0 1024 1024" version="1.1" xmlns="http://www.w3.org/2000/svg"><path d="M905.77 648l2-0.39L804.63 130.7H231.34l-92.73 517.42 1.88 0.34a36.84 36.84 0 0 0-2.28 12.78v175a37 37 0 0 0 37 37h696a37 37 0 0 0 37-37v-175a36.94 36.94 0 0 0-2.44-13.24z m-53.69-23.79H547.19V509.7c23.5-4.11 45.22-13.09 63-26.29 26.83-20 42.22-48.29 42.22-77.75s-15.41-57.79-42.25-77.74c-18.89-14.05-42.26-23.32-67.5-27V180.7h221zM517.66 349.09c45.93 0 84.72 25.91 84.72 56.57s-38.79 56.58-84.72 56.58S433 436.33 433 405.66s38.74-56.57 84.66-56.57zM273.17 180.7h219.49v120.2c-25.23 3.7-48.6 13-67.5 27-26.83 19.97-42.16 48.3-42.16 77.76s15.38 57.8 42.21 77.75c20 14.88 45.06 24.4 72 27.61v113.22H193.68z m585 642.56h-670v-149h670zM309.55 775.93H735a25 25 0 0 0 0-50H309.55a25 25 0 0 0 0 50z" /></svg>