<?xml version="1.0" standalone="no"?><!DOCTYPE svg PUBLIC "-//W3C//DTD SVG 1.1//EN" "http://www.w3.org/Graphics/SVG/1.1/DTD/svg11.dtd"><svg class="icon" width="200px" height="200.00px" viewBox="0 0 1024 1024" version="1.1" xmlns="http://www.w3.org/2000/svg"><path d="M426.55497406 378.80628312c110.57591625 0 226.17801094-25.13089031 296.5445025-70.36649249v85.44502593h65.34031406V207.91623031c0-115.60209469-185.96858625-175.91623031-361.88481656-175.91623031C245.61256531 32 59.64397906 92.31413656 59.64397906 207.91623031v512.6701575c0 110.57591625 185.96858625 170.89005281 366.910995 170.89005188v-65.34031407c-185.96858625 0-301.57068094-60.31413656-301.57068093-105.54973781v-155.81151843c70.3664925 45.23560219 185.96858625 70.3664925 301.57068093 70.36649156v-65.34031406c-185.96858625 0-301.57068094-60.31413656-301.57068093-105.54973782V308.43979063c70.3664925 45.23560219 185.96858625 70.3664925 301.57068093 70.36649249z m0-281.46596906c185.96858625 0 296.5445025 65.34031406 296.5445025 110.57591625s-110.57591625 105.54973781-296.5445025 105.54973782-301.57068094-60.31413656-301.57068094-105.54973782 115.60209469-110.57591625 301.57068094-110.57591625z m291.51832406 316.64921438c-165.86387438 0-246.28272281 65.34031406-246.28272187 125.65445062v331.72774875c0 60.31413656 80.41884844 120.62827219 246.28272187 120.62827219 160.83769594 0 241.25654437-60.31413656 246.28272282-120.62827219v-331.72774875c0-60.31413656-85.44502594-125.65445063-246.28272282-125.65445062z m0 65.34031406c115.60209469 0 180.94240875 40.20942375 180.94240875 60.31413656 0 15.07853438-65.34031406 60.31413656-180.94240875 60.31413657-120.62827219 0-180.94240875-45.23560219-180.94240781-60.31413657 0-20.10471187 60.31413656-60.31413656 180.94240781-60.31413656z m0 447.32984344c-120.62827219 0-180.94240875-40.20942375-180.94240781-55.28795813v-80.41884843c40.20942375 20.10471187 100.52356031 35.18324625 180.94240781 35.18324625 75.39267 0 135.70680656-15.07853438 180.94240875-35.18324625v80.41884843c0 15.07853438-65.34031406 55.28795812-180.94240875 55.28795813z m0-165.86387438c-120.62827219 0-180.94240875-40.20942375-180.94240781-55.28795812v-80.41884844c40.20942375 25.13089031 100.52356031 40.20942375 180.94240781 40.20942469 75.39267 0 135.70680656-15.07853438 180.94240875-40.20942469v80.41884844c0 15.07853438-65.34031406 55.28795812-180.94240875 55.28795812z m0 0z" /></svg>