<?xml version="1.0" standalone="no"?><!DOCTYPE svg PUBLIC "-//W3C//DTD SVG 1.1//EN" "http://www.w3.org/Graphics/SVG/1.1/DTD/svg11.dtd"><svg t="1760090532228" class="icon" viewBox="0 0 1024 1024" version="1.1" xmlns="http://www.w3.org/2000/svg" p-id="127899" xmlns:xlink="http://www.w3.org/1999/xlink" width="200" height="200"><path d="M214.2 510.8c-39.7 0-76.4 1.2-113-0.7-11.8-0.6-31-7.6-33-15.2-2.7-10.6 4.2-28.2 12.9-36.6 102-97.9 205.2-194.5 308-291.6 34.3-32.3 68.9-64.3 102.6-97.3 16.8-16.5 31.1-17 48.4-0.4 56.1 54.2 112.9 107.5 169.6 161.2 2.9 2.7 6.2 5 14.2 11.4 0-17.2-0.4-29.5 0.1-41.8 1.7-39.8 29-69.3 62.5-68 33.6 1.3 58.6 29.4 59.1 68.4 0.6 44.6-1 89.2 0.9 133.7 0.5 12.7 6.7 28 15.4 37 29.7 30.8 62.5 58.7 92.4 89.3 7.7 7.9 15.5 25 11.9 32.2-4.5 9.1-20.4 16.9-31.8 17.6-37.4 2.2-75 0.8-115.2 0.8v30.1c0 114.9 0.1 229.8 0 344.7 0 36.9-6.6 43.7-43.1 43.7-154.3 0.1-308.7-0.3-463 0.6-13.4 0.1-28.1 5.3-39.7 12.2-32.6 19.2-75.5 15.4-101.9-11.1-26.2-26.5-30.4-66.8-10-99 3.6-5.7 7.4-12.2 12.7-16 37-26.4 43-62.9 41-105.7-3.2-65-1-130.3-1-199.5zM269.1 713c1.9 1.2 3.7 2.4 5.6 3.6 27.4-27.9 55.4-55.3 81.7-84.2 5-5.5 6-17.4 4.5-25.6-11.3-59.3 5.1-110.3 45.5-153.7 51.1-55 144.9-69.7 201.4-30.8-12.7 14.1-24.8 28.3-37.8 41.7-27.7 28.5-31 56.2-8.8 78.3 22.4 22.4 49 19.9 78.8-7.5 14.3-13.2 28.6-26.5 43.3-40.2C741.9 615.5 654.5 755.4 525 744c-42.8-3.8-66.4 9.9-90.4 37.6-7.8 9-17.2 16.8-25.9 25-22.6 21.4-45.2 42.8-72.8 68.8h428.3v-30-342.2c0-39 4.7-43.6 44.7-43.6h67.2c-3.2-5.6-3.7-7.3-4.8-8.4C757.2 345 643 238.8 529.3 132c-12.9-12.1-19.7-6.4-29.4 2.8-70.5 66.4-141.4 132.4-212.2 198.5-43.5 40.6-87 81.2-135.6 126.6 30.6 0 54.2-0.1 77.9 0 31.5 0.2 39.1 7.8 39.1 39.7 0.1 71.1 0 142.2 0 213.4zM525 445.6c-82.2 9.7-136.1 68.6-119.4 143.6 9.9 44.4-6 66.2-34 90.1-8.5 7.2-15.9 15.7-23.7 23.6-46.7 46.7-93.7 93.2-140 140.3-23.2 23.6-18.3 55.9 8.9 64.2 18.6 5.7 32.8-2 45.9-15.3 55.5-56.1 112.7-110.6 166.8-168 23.6-25.1 43.4-35.7 80.6-25.5 72.7 19.8 148.5-44.6 145.4-117-52.8 27-94.8 24.6-127-7.3-32.4-32.4-33.8-72.7-3.5-128.7z" p-id="127900"></path></svg>