<?xml version="1.0" standalone="no"?><!DOCTYPE svg PUBLIC "-//W3C//DTD SVG 1.1//EN" "http://www.w3.org/Graphics/SVG/1.1/DTD/svg11.dtd"><svg class="icon" width="200px" height="200.00px" viewBox="0 0 1024 1024" version="1.1" xmlns="http://www.w3.org/2000/svg"><path d="M321.154461 500.084392A191.212879 191.212879 0 0 1 512.111365 309.063494a191.148885 191.148885 0 0 1 190.956904 191.020898A191.148885 191.148885 0 0 1 512.111365 690.977302a191.148885 191.148885 0 0 1-190.956904-190.89291m430.676932 0A239.976002 239.976002 0 0 0 512.111365 260.30037a239.976002 239.976002 0 0 0-239.720028 239.784022A239.976002 239.976002 0 0 0 512.111365 739.740426a239.976002 239.976002 0 0 0 239.720028-239.656034"  /><path d="M906.7599 644.133987a24.445555 24.445555 0 0 0-32.124787 12.414758 387.673233 387.673233 0 0 1-354.268573 230.632937c-209.579042 0-380.377962-167.407259-386.585342-375.450455l49.787021 49.915008a24.509549 24.509549 0 0 0 34.556545 0 24.317568 24.317568 0 0 0 0-34.556544L130.26155 439.418458 129.877588 439.034497 129.55762 438.522548a24.381562 24.381562 0 0 0-34.428557 0L7.201856 526.321768a24.381562 24.381562 0 0 0 34.556544 34.492551l43.515649-43.515649c9.087091 232.29677 200.427957 418.646135 435.028497 418.646136a436.436356 436.436356 0 0 0 398.808119-259.686032 24.317568 24.317568 0 0 0-12.414758-32.124787"  /><path d="M1011.96538 342.980102a24.381562 24.381562 0 0 0-33.340666 8.767123l-32.444756 55.674433A436.948305 436.948305 0 0 0 520.36654 64.09599 438.036196 438.036196 0 0 0 143.892187 280.138386a24.445555 24.445555 0 0 0 8.70313 33.40466c11.582842 6.655334 26.557344 2.815718 33.404659-8.767124a388.825117 388.825117 0 0 1 334.366564-191.980802 388.057194 388.057194 0 0 1 378.842115 308.129188l-57.914208-33.724628a24.381562 24.381562 0 0 0-24.509549 42.107789l107.189281 62.457754c0.255974 0.127987 0.447955 0.063994 0.575942 0.191981l0.447955 0.383962a24.189581 24.189581 0 0 0 33.276673-8.767123l62.521748-107.253275a24.445555 24.445555 0 0 0-8.831117-33.340666"  /></svg>