<?xml version="1.0" standalone="no"?><!DOCTYPE svg PUBLIC "-//W3C//DTD SVG 1.1//EN" "http://www.w3.org/Graphics/SVG/1.1/DTD/svg11.dtd"><svg class="icon" width="200px" height="200.00px" viewBox="0 0 1024 1024" version="1.1" xmlns="http://www.w3.org/2000/svg"><path d="M952 784.8h-77.6c-7.2 0-13.6-4.8-16-12.8-5.6-24.8-28.8-43.2-54.4-43.2s-48.8 18.4-54.4 43.2c-1.6 7.2-8 12.8-16 12.8h-128c-8.8 0-16-7.2-16-16V379.2c0-8.8 7.2-16 16-16h215.2c4 0 8 1.6 11.2 4.8l131.2 130.4c3.2 3.2 4.8 7.2 4.8 11.2v120c29.6 7.2 52 33.6 52 65.6v23.2c0 36.8-30.4 66.4-68 66.4z m-65.6-32h65.6c20 0 36-16 36-35.2v-23.2c0-19.2-16-35.2-36-35.2-8.8 0-16-7.2-16-16V516l-122.4-120.8h-192v358.4h101.6c12.8-32.8 45.6-55.2 81.6-55.2s68.8 21.6 81.6 54.4z"  /><path d="M605.6 784.8H311.2c-7.2 0-13.6-4.8-16-12.8-5.6-24.8-28.8-43.2-54.4-43.2-25.6 0-48.8 18.4-54.4 43.2-1.6 7.2-8 12.8-16 12.8H20c-8.8 0-16-7.2-16-16v-104c0-8.8 7.2-16 16-16h585.6c8.8 0 16 7.2 16 16v104.8c0 8.8-7.2 15.2-16 15.2z m-283.2-32h266.4V680H36v72.8h123.2c12.8-32.8 45.6-55.2 81.6-55.2 36 0 68.8 22.4 81.6 55.2zM888 608.8H668.8c-4.8 0-8-3.2-8-8V433.6c0-4.8 3.2-8 8-8h127.2c2.4 0 4 0.8 5.6 2.4L893.6 520c1.6 1.6 2.4 3.2 2.4 5.6v75.2c0 4.8-3.2 8-8 8z m-211.2-16H880v-64L792 442.4H676.8v150.4zM724 672.8h-62.4c-4.8 0-8-3.2-8-8s3.2-8 8-8h62.4c4.8 0 8 3.2 8 8s-3.2 8-8 8z"  /><path d="M240.8 872c-48 0-88-39.2-88-87.2s39.2-87.2 88-87.2 88 39.2 88 87.2-39.2 87.2-88 87.2z m0-142.4c-30.4 0-56 24.8-56 55.2 0 30.4 24.8 55.2 56 55.2s56-24.8 56-55.2c0-30.4-24.8-55.2-56-55.2z"  /><path d="M240.8 816c-17.6 0-32-13.6-32-31.2 0-16.8 14.4-31.2 32-31.2s32 13.6 32 31.2c0 16.8-14.4 31.2-32 31.2z m0-46.4c-8.8 0-16 6.4-16 15.2s7.2 15.2 16 15.2 16-6.4 16-15.2-7.2-15.2-16-15.2zM804.8 872c-48 0-88-39.2-88-87.2s39.2-87.2 88-87.2 88 39.2 88 87.2c-0.8 48-40 87.2-88 87.2z m0-142.4c-30.4 0-56 24.8-56 55.2 0 30.4 24.8 55.2 56 55.2 30.4 0 56-24.8 56-55.2-0.8-30.4-25.6-55.2-56-55.2z"  /><path d="M804.8 816c-17.6 0-32-13.6-32-31.2 0-16.8 14.4-31.2 32-31.2s32 13.6 32 31.2c-0.8 16.8-14.4 31.2-32 31.2z m0-46.4c-8.8 0-16 6.4-16 15.2s7.2 15.2 16 15.2 16-6.4 16-15.2-7.2-15.2-16-15.2zM554.4 680.8H432.8c-6.4 0-12.8-4-15.2-10.4L251.2 252c-1.6-4-1.6-8.8 0.8-12.8 1.6-4 5.6-7.2 9.6-8 4-0.8 7.2-3.2 10.4-5.6 3.2-3.2 8-4.8 12.8-4.8 4.8 0.8 8.8 3.2 12 7.2L568 656c3.2 4.8 3.2 11.2 0.8 16s-8.8 8.8-14.4 8.8z m-110.4-32h81.6L306.4 303.2l137.6 345.6zM164.8 586.4c-32 0-57.6-25.6-57.6-57.6 0-8.8 7.2-16 16-16s16 7.2 16 16c0 14.4 11.2 25.6 25.6 25.6s25.6-11.2 25.6-25.6c0-13.6-11.2-24-25.6-24-4.8 0-9.6-2.4-12.8-6.4-3.2-4-4-8.8-3.2-13.6l8.8-36 56-213.6c2.4-8.8 11.2-13.6 19.2-11.2 8.8 2.4 13.6 11.2 11.2 19.2l-60.8 232.8c22.4 8 37.6 28 37.6 52.8 1.6 32-24 57.6-56 57.6z"  /><path d="M255.2 264c-31.2 0-56-24.8-56-56s24.8-56 56-56 56 24.8 56 56-25.6 56-56 56z m0-80c-13.6 0-24 10.4-24 24s10.4 24 24 24 24-10.4 24-24-11.2-24-24-24z"  /></svg>